<svg width="300" height="87" viewBox="0 0 300 87" fill="none" xmlns="http://www.w3.org/2000/svg">
<path d="M45.3109 66.4181C44.7463 66.1669 44.1139 66.0527 43.3686 66.0527C42.8266 66.0527 42.3071 66.1212 41.8328 66.2583C41.3585 66.3953 40.9068 66.6237 40.4777 66.9206C40.0712 67.2175 39.6872 67.6514 39.371 68.1996H39.2129L39.0548 66.3268H37.79V78.1572H39.3936V71.1686C39.3936 70.3921 39.5517 69.7297 39.8905 69.1816C40.2067 68.6335 40.6358 68.2224 41.1778 67.9255C41.6973 67.6286 42.2619 67.4916 42.8491 67.4916C43.2331 67.4916 43.5944 67.5372 43.9106 67.6058C44.2268 67.6743 44.4979 67.8113 44.7463 67.994C44.9721 68.1767 45.1754 68.4508 45.3109 68.7705C45.4464 69.0903 45.5142 69.5242 45.5142 70.0495V78.1344H47.1177V69.8896C47.1177 68.9304 46.9597 68.1767 46.6435 67.6286C46.3047 67.0805 45.853 66.6694 45.3109 66.4181Z" fill="white"/>
<path d="M58.6586 66.7151C57.9359 66.2811 57.0099 66.0527 55.9258 66.0527C54.7514 66.0527 53.7802 66.2811 52.9897 66.7151C52.1993 67.149 51.612 67.8341 51.2055 68.7477C50.799 69.6612 50.5957 70.826 50.5957 72.242C50.5957 73.658 50.799 74.8228 51.2055 75.7363C51.612 76.6498 52.1993 77.335 52.9672 77.7689C53.7351 78.2029 54.6836 78.4313 55.7903 78.4313C56.626 78.4313 57.3713 78.3171 57.9811 78.1115C58.6135 77.8831 59.1103 77.5862 59.5169 77.198C59.9234 76.8097 60.2396 76.3529 60.4429 75.8277C60.6687 75.3024 60.7591 74.7542 60.7591 74.1833H59.2007C59.2007 74.5715 59.1329 74.9369 58.9748 75.3024C58.8167 75.6678 58.6135 75.9647 58.3424 76.2387C58.0714 76.49 57.7101 76.7184 57.3035 76.8554C56.8744 77.0153 56.3775 77.0838 55.8355 77.0838C55.0676 77.0838 54.4126 76.9467 53.8931 76.6498C53.3737 76.3529 52.9672 75.8733 52.6735 75.211C52.4025 74.5487 52.2444 73.7037 52.2444 72.6759H60.8494V71.6482C60.8494 70.4606 60.6687 69.4328 60.2848 68.6107C59.9686 67.7656 59.404 67.149 58.6586 66.7151ZM52.2896 71.3741C52.3574 70.4606 52.5154 69.7069 52.7865 69.1359C53.0575 68.5421 53.464 68.131 53.9835 67.8341C54.503 67.5601 55.1353 67.4231 55.8581 67.4231C56.3549 67.4231 56.8066 67.4916 57.2358 67.6286C57.6423 67.7656 58.0037 67.994 58.2973 68.2909C58.5909 68.5878 58.8167 68.9989 58.9974 69.5014C59.1781 70.0038 59.2459 70.6205 59.2459 71.3741H52.2896Z" fill="white"/>
<path d="M74.9881 72.859C74.9203 73.1331 74.83 73.4528 74.7397 73.8182C74.6493 74.1836 74.5364 74.549 74.4461 74.9145C74.3557 75.2799 74.2654 75.5768 74.2202 75.828H74.0847C74.0395 75.5539 73.9718 75.2342 73.904 74.8916C73.8137 74.5262 73.7459 74.1608 73.6556 73.7954C73.5652 73.43 73.4975 73.1102 73.4297 72.8362L71.781 66.3271H70.0193L68.4158 72.8362C68.348 73.0645 68.2803 73.3614 68.2125 73.704C68.1222 74.0694 68.0544 74.4349 67.9641 74.8231C67.8737 75.2114 67.806 75.5311 67.7382 75.828H67.6027C67.5576 75.6225 67.4898 75.3484 67.3995 74.983C67.3091 74.6404 67.2188 74.2521 67.1284 73.8867C67.0381 73.4985 66.9478 73.1559 66.8574 72.859L64.9828 66.3271H63.3115L66.88 78.1575H68.4835L70.0871 71.8313C70.1774 71.4658 70.2678 71.0776 70.3581 70.6665C70.4485 70.2554 70.5388 69.8671 70.6066 69.4789C70.6743 69.0906 70.7421 68.748 70.8098 68.4968H70.9453C71.0131 68.8166 71.0809 69.182 71.1712 69.5931C71.2615 70.0042 71.3519 70.4153 71.4422 70.8264C71.5326 71.2146 71.6229 71.5572 71.6681 71.8313L73.2716 78.1804H74.8526L78.3985 66.35H76.8853L74.9881 72.859Z" fill="white"/>
<path d="M97.5051 65.6421C97.7084 65.2538 97.7987 64.8427 97.8213 64.4316H96.1952C96.1049 64.8884 95.9242 65.2995 95.6306 65.6649C95.3595 66.0303 94.953 66.3044 94.4335 66.51C94.0948 66.3501 93.7108 66.2587 93.2817 66.1674C92.8526 66.0989 92.4009 66.0532 91.904 66.0532C90.8651 66.0532 90.0068 66.213 89.3067 66.5328C88.6066 66.8525 88.1097 67.2865 87.7709 67.8574C87.4321 68.4284 87.2514 69.0679 87.2514 69.7987C87.2514 70.3925 87.3869 70.9406 87.6806 71.4431C87.9742 71.9455 88.3581 72.3795 88.855 72.6992C88.3129 72.8134 87.8612 73.0646 87.4999 73.43C87.1385 73.7955 86.9352 74.2294 86.9352 74.7547C86.9352 75.1429 87.0482 75.5084 87.2514 75.8281C87.4547 76.1478 87.7483 76.3991 88.1323 76.5589C87.5902 76.7873 87.1611 77.1299 86.7997 77.5867C86.461 78.0434 86.2803 78.6144 86.2803 79.2767C86.2803 79.8705 86.4158 80.373 86.7094 80.8069C86.9804 81.2408 87.3644 81.5834 87.8612 81.8347C88.3355 82.0859 88.855 82.2001 89.4196 82.2001H93.9818C94.7046 82.2001 95.337 82.0402 95.879 81.7433C96.421 81.4464 96.8502 81.0353 97.1664 80.51C97.4826 79.9847 97.6406 79.4138 97.6406 78.7971C97.6406 77.9064 97.3696 77.1756 96.8276 76.6046C96.2855 76.0108 95.5854 75.7367 94.7272 75.7367H90.1424C89.6906 75.7367 89.3293 75.6454 89.0357 75.4398C88.7421 75.2343 88.584 74.9831 88.584 74.6405C88.584 74.2294 88.7195 73.9553 89.0131 73.7726C89.2841 73.5899 89.6681 73.5214 90.0972 73.5214H91.9492C93.0107 73.5214 93.8689 73.3615 94.5465 73.019C95.224 72.6992 95.7209 72.2424 96.0597 71.6715C96.3985 71.1005 96.5566 70.4839 96.5566 69.7759C96.5566 69.2734 96.4662 68.7938 96.2855 68.337C96.1049 67.8803 95.8338 67.492 95.4499 67.1266C95.9242 67.0581 96.3307 66.8754 96.6695 66.6013C97.0308 66.3729 97.3019 66.0532 97.5051 65.6421ZM89.8262 77.1984H94.3432C94.8401 77.1984 95.2466 77.3811 95.5628 77.7237C95.879 78.0663 96.0597 78.5231 96.0597 79.094C96.0597 79.4138 95.9693 79.7335 95.7887 80.0304C95.608 80.3273 95.3595 80.5557 95.0433 80.7156C94.7272 80.8754 94.3884 80.9668 94.0044 80.9668H89.8487C89.3293 80.9668 88.9002 80.8069 88.5162 80.4643C88.1548 80.1218 87.9742 79.665 87.9742 79.094C87.9742 78.5687 88.1548 78.1348 88.5388 77.7465C88.8776 77.3811 89.3293 77.1984 89.8262 77.1984ZM94.2303 71.603C93.7334 72.0369 92.9655 72.2653 91.9266 72.2653C91.249 72.2653 90.707 72.1511 90.2553 71.9455C89.8036 71.74 89.4648 71.4431 89.2389 71.0777C89.0131 70.7123 88.9002 70.2783 88.9002 69.8216C88.9002 69.0679 89.1486 68.4512 89.6455 68.0173C90.1423 67.5834 90.9102 67.355 91.904 67.355C92.9429 67.355 93.7108 67.5834 94.2077 68.0173C94.7046 68.4512 94.953 69.0679 94.953 69.8216C94.9756 70.5524 94.7272 71.1462 94.2303 71.603Z" fill="white"/>
<path d="M104.935 66.0527C104.393 66.0527 103.942 66.1669 103.58 66.3953C103.219 66.6237 102.948 66.8978 102.745 67.2403C102.541 67.5829 102.383 67.9483 102.27 68.2909H102.112L101.977 66.304H100.689V78.1344H102.293V71.3284C102.293 70.8488 102.338 70.3921 102.451 69.9353C102.564 69.5014 102.745 69.0903 102.971 68.7477C103.196 68.4051 103.513 68.131 103.874 67.9483C104.235 67.7656 104.687 67.6743 105.207 67.6743H105.907V66.1898C105.816 66.1669 105.681 66.1212 105.5 66.0984C105.342 66.0756 105.161 66.0527 104.935 66.0527Z" fill="white"/>
<path d="M110.56 66.3271H108.956V78.1575H110.56V66.3271Z" fill="white"/>
<path d="M110.56 61.8965H108.956V63.9063H110.56V61.8965Z" fill="white"/>
<path d="M116.522 61.8965H114.919V78.1576H116.522V61.8965Z" fill="white"/>
<path d="M122.484 61.8965H120.881V78.1576H122.484V61.8965Z" fill="white"/>
<path d="M128.447 66.3271H126.844V78.1575H128.447V66.3271Z" fill="white"/>
<path d="M128.447 61.8965H126.844V63.9063H128.447V61.8965Z" fill="white"/>
<path d="M140.328 66.4181C139.763 66.1669 139.131 66.0527 138.385 66.0527C137.843 66.0527 137.324 66.1212 136.849 66.2583C136.375 66.3953 135.923 66.6237 135.494 66.9206C135.088 67.2175 134.704 67.6514 134.388 68.1996H134.23L134.071 66.3268H132.807V78.1572H134.41V71.1686C134.41 70.3921 134.568 69.7297 134.907 69.1816C135.223 68.6335 135.652 68.2224 136.194 67.9255C136.714 67.6286 137.279 67.4916 137.866 67.4916C138.25 67.4916 138.611 67.5372 138.927 67.6058C139.243 67.6743 139.514 67.8113 139.763 67.994C139.989 68.1767 140.192 68.4508 140.328 68.7705C140.463 69.0903 140.531 69.5242 140.531 70.0495V78.1344H142.134V69.8896C142.134 68.9304 141.976 68.1767 141.66 67.6286C141.321 67.0805 140.892 66.6694 140.328 66.4181Z" fill="white"/>
<path d="M156.34 65.6421C156.543 65.2538 156.634 64.8427 156.656 64.4316H155.053C154.962 64.8884 154.782 65.2995 154.488 65.6649C154.217 66.0303 153.81 66.3044 153.291 66.51C152.952 66.3501 152.568 66.2587 152.139 66.1674C151.71 66.0989 151.258 66.0532 150.761 66.0532C149.722 66.0532 148.864 66.213 148.164 66.5328C147.464 66.8525 146.967 67.2865 146.628 67.8574C146.29 68.4284 146.109 69.0679 146.109 69.7987C146.109 70.3925 146.244 70.9406 146.538 71.4431C146.832 71.9455 147.216 72.3795 147.712 72.6992C147.17 72.8134 146.719 73.0646 146.357 73.43C145.996 73.7955 145.793 74.2294 145.793 74.7547C145.793 75.1429 145.906 75.5084 146.109 75.8281C146.312 76.1478 146.606 76.3991 146.99 76.5589C146.448 76.7873 146.019 77.1299 145.657 77.5867C145.318 78.0434 145.138 78.6144 145.138 79.2767C145.138 79.8705 145.273 80.373 145.567 80.8069C145.838 81.2408 146.222 81.5834 146.719 81.8347C147.193 82.0859 147.712 82.2001 148.277 82.2001H152.884C153.607 82.2001 154.24 82.0402 154.782 81.7433C155.324 81.4464 155.753 81.0353 156.069 80.51C156.385 79.9847 156.543 79.4138 156.543 78.7971C156.543 77.9064 156.272 77.1756 155.73 76.6046C155.188 76.0108 154.488 75.7367 153.63 75.7367H149.045C148.593 75.7367 148.232 75.6454 147.938 75.4398C147.645 75.2343 147.487 74.9831 147.487 74.6405C147.487 74.2294 147.622 73.9553 147.916 73.7726C148.187 73.5899 148.571 73.5214 149 73.5214H150.852C151.913 73.5214 152.772 73.3615 153.449 73.019C154.127 72.6992 154.624 72.2424 154.962 71.6715C155.301 71.1005 155.459 70.4839 155.459 69.7759C155.459 69.2734 155.369 68.7938 155.188 68.337C155.007 67.8803 154.736 67.492 154.352 67.1266C154.827 67.0581 155.233 66.8754 155.572 66.6013C155.888 66.3729 156.159 66.0532 156.34 65.6421ZM148.684 77.1984H153.201C153.698 77.1984 154.104 77.3811 154.42 77.7237C154.736 78.0663 154.917 78.5231 154.917 79.094C154.917 79.4138 154.827 79.7335 154.646 80.0304C154.465 80.3273 154.217 80.5557 153.901 80.7156C153.585 80.8754 153.246 80.9668 152.862 80.9668H148.706C148.187 80.9668 147.758 80.8069 147.374 80.4643C147.012 80.1218 146.832 79.665 146.832 79.094C146.832 78.5687 147.012 78.1348 147.396 77.7465C147.735 77.3811 148.164 77.1984 148.684 77.1984ZM153.088 71.603C152.591 72.0369 151.823 72.2653 150.784 72.2653C150.106 72.2653 149.564 72.1511 149.113 71.9455C148.661 71.74 148.322 71.4431 148.096 71.0777C147.871 70.7123 147.758 70.2783 147.758 69.8216C147.758 69.0679 148.006 68.4512 148.503 68.0173C149 67.5834 149.768 67.355 150.761 67.355C151.8 67.355 152.568 67.5834 153.065 68.0173C153.562 68.4512 153.81 69.0679 153.81 69.8216C153.833 70.5524 153.585 71.1462 153.088 71.603Z" fill="white"/>
<path d="M167.564 63.0381H166.277L165.961 66.3268H164.38V67.6972H165.961V76.1474C165.961 76.5585 166.029 76.9468 166.142 77.2894C166.277 77.632 166.48 77.906 166.819 78.0887C167.135 78.2943 167.564 78.3856 168.106 78.3856C168.287 78.3856 168.468 78.3856 168.694 78.3628C168.897 78.3399 169.1 78.2943 169.303 78.2486C169.507 78.2029 169.687 78.1344 169.823 78.0887V77.061H168.49C168.106 77.061 167.858 76.9696 167.745 76.7641C167.632 76.5585 167.587 76.2616 167.587 75.8734V67.72H169.823V66.3497H167.564V63.0381Z" fill="white"/>
<path d="M177.412 66.0527C176.87 66.0527 176.418 66.1669 176.057 66.3953C175.696 66.6237 175.425 66.8978 175.221 67.2403C175.018 67.5829 174.86 67.9483 174.747 68.2909H174.589L174.453 66.304H173.166V78.1344H174.77V71.3284C174.77 70.8488 174.815 70.3921 174.928 69.9353C175.041 69.5014 175.221 69.0903 175.447 68.7477C175.673 68.4051 175.989 68.131 176.351 67.9483C176.712 67.7656 177.164 67.6743 177.683 67.6743H178.383V66.1898C178.293 66.1669 178.157 66.1212 177.977 66.0984C177.819 66.0756 177.615 66.0527 177.412 66.0527Z" fill="white"/>
<path d="M190.15 76.8782C190.037 76.764 189.992 76.5585 189.992 76.2844V69.5014C189.992 68.7705 189.811 68.1767 189.473 67.6514C189.134 67.149 188.637 66.7379 188.005 66.4638C187.372 66.1898 186.582 66.0527 185.656 66.0527C184.73 66.0527 183.917 66.1669 183.216 66.4181C182.494 66.6694 181.952 67.012 181.568 67.4916C181.184 67.9712 180.981 68.5878 180.981 69.3415C180.981 69.4557 180.981 69.547 180.981 69.6155C180.981 69.6841 180.981 69.7754 181.003 69.8439H182.539V69.4785C182.539 69.1131 182.629 68.7705 182.787 68.4508C182.968 68.1539 183.262 67.9027 183.691 67.6971C184.12 67.4916 184.707 67.4002 185.452 67.4002C186.22 67.4002 186.83 67.4916 187.237 67.6743C187.666 67.857 187.959 68.131 188.117 68.4508C188.298 68.7934 188.366 69.2045 188.366 69.6841V71.1914C187.214 71.1914 186.175 71.2371 185.204 71.3513C184.233 71.4655 183.397 71.6482 182.674 71.9451C181.974 72.242 181.41 72.6531 181.026 73.1555C180.642 73.6808 180.438 74.3431 180.438 75.1425C180.438 75.7591 180.551 76.2844 180.755 76.6955C180.958 77.1066 181.229 77.4492 181.59 77.7004C181.929 77.9516 182.336 78.1343 182.787 78.2485C183.239 78.3627 183.691 78.4084 184.142 78.4084C184.73 78.4084 185.294 78.3399 185.814 78.18C186.333 78.0202 186.808 77.7918 187.237 77.4949C187.666 77.198 188.027 76.8554 188.321 76.4443H188.479C188.501 76.8097 188.569 77.1295 188.66 77.4264C188.75 77.7233 188.908 77.9516 189.156 78.1343C189.405 78.3171 189.698 78.3856 190.082 78.3856C190.353 78.3856 190.602 78.3627 190.85 78.2942C191.099 78.2257 191.325 78.1572 191.55 78.0658V77.0381H190.602C190.399 77.0609 190.263 76.9924 190.15 76.8782ZM188.388 73.7265C188.388 74.2289 188.276 74.6629 188.05 75.074C187.824 75.4851 187.53 75.8276 187.146 76.1245C186.785 76.4215 186.356 76.6498 185.904 76.8097C185.452 76.9696 184.978 77.0609 184.481 77.0609C184.03 77.0609 183.646 76.9924 183.284 76.8554C182.923 76.7184 182.652 76.5128 182.449 76.2159C182.245 75.919 182.155 75.5536 182.155 75.0968C182.155 74.4117 182.381 73.8864 182.855 73.521C183.329 73.1555 184.03 72.8815 184.956 72.7444C185.882 72.5846 187.033 72.5161 188.411 72.5161V73.7265H188.388Z" fill="white"/>
<path d="M202.03 67.8574H201.894C201.623 67.4234 201.307 67.0808 200.968 66.8068C200.607 66.5556 200.223 66.35 199.771 66.2358C199.32 66.1216 198.845 66.0531 198.348 66.0531C197.422 66.0531 196.609 66.2815 195.909 66.7154C195.209 67.1494 194.69 67.8117 194.328 68.7024C193.967 69.5931 193.764 70.735 193.764 72.1282C193.764 73.6127 193.944 74.8231 194.306 75.7367C194.667 76.6502 195.209 77.3354 195.887 77.7693C196.564 78.2032 197.422 78.4316 198.371 78.4316C199.116 78.4316 199.794 78.2718 200.449 77.9292C201.104 77.6094 201.623 77.107 202.03 76.4218H202.188L202.369 78.1576H203.611V61.8965H202.007V67.8574H202.03ZM202.03 72.4479C202.03 73.43 201.917 74.2522 201.691 74.9145C201.465 75.5996 201.104 76.1021 200.607 76.4675C200.11 76.8329 199.455 77.0156 198.665 77.0156C198.01 77.0156 197.445 76.8786 196.971 76.5817C196.496 76.3076 196.113 75.828 195.842 75.1657C195.57 74.5034 195.435 73.6355 195.435 72.5164V71.9455C195.435 70.8721 195.548 70.027 195.796 69.3647C196.045 68.7024 196.406 68.2228 196.903 67.9259C197.4 67.629 198.01 67.4691 198.755 67.4691C199.162 67.4691 199.545 67.5376 199.929 67.6518C200.313 67.7888 200.675 68.0172 200.991 68.337C201.307 68.6567 201.556 69.1363 201.736 69.7301C201.917 70.3239 202.007 71.1004 202.007 72.014V72.4479H202.03Z" fill="white"/>
<path d="M209.597 66.3271H207.993V78.1575H209.597V66.3271Z" fill="white"/>
<path d="M209.597 61.8965H207.993V63.9063H209.597V61.8965Z" fill="white"/>
<path d="M215.987 63.0381H214.7L214.384 66.3268H212.803V67.6972H214.384V76.1474C214.384 76.5585 214.451 76.9468 214.564 77.2894C214.7 77.632 214.903 77.906 215.242 78.0887C215.558 78.2943 215.987 78.3856 216.529 78.3856C216.71 78.3856 216.891 78.3856 217.117 78.3628C217.32 78.3399 217.523 78.2943 217.726 78.2486C217.93 78.2029 218.11 78.1344 218.246 78.0887V77.061H216.913C216.529 77.061 216.281 76.9696 216.168 76.7641C216.055 76.5585 216.01 76.2616 216.01 75.8734V67.72H218.246V66.3497H216.01V63.0381H215.987Z" fill="white"/>
<path d="M223.192 66.3271H221.589V78.1575H223.192V66.3271Z" fill="white"/>
<path d="M223.192 61.8965H221.589V63.9063H223.192V61.8965Z" fill="white"/>
<path d="M235.072 66.7151C234.304 66.2811 233.333 66.0527 232.181 66.0527C231.052 66.0527 230.104 66.2811 229.313 66.7151C228.523 67.149 227.913 67.8341 227.506 68.7477C227.1 69.6612 226.896 70.826 226.896 72.242C226.896 73.658 227.1 74.8228 227.506 75.7363C227.913 76.6498 228.523 77.335 229.313 77.7689C230.104 78.2029 231.075 78.4313 232.181 78.4313C233.333 78.4313 234.304 78.2029 235.072 77.7689C235.84 77.335 236.45 76.6498 236.857 75.7363C237.263 74.8228 237.466 73.658 237.466 72.242C237.466 70.826 237.263 69.6612 236.857 68.7477C236.45 67.8341 235.863 67.1718 235.072 66.7151ZM235.795 72.5161C235.795 73.5895 235.66 74.4345 235.366 75.1197C235.095 75.782 234.666 76.2844 234.146 76.5813C233.604 76.9011 232.949 77.0609 232.159 77.0609C231.368 77.0609 230.713 76.9011 230.171 76.5813C229.629 76.2616 229.223 75.782 228.952 75.1197C228.681 74.4573 228.523 73.5895 228.523 72.5161V71.9679C228.523 70.8945 228.658 70.0495 228.952 69.3643C229.223 68.702 229.652 68.1996 230.171 67.9027C230.713 67.5829 231.368 67.4231 232.159 67.4231C232.949 67.4231 233.604 67.5829 234.146 67.9027C234.688 68.2224 235.095 68.702 235.366 69.3643C235.637 70.0267 235.795 70.8945 235.795 71.9679V72.5161Z" fill="white"/>
<path d="M247.787 66.4181C247.223 66.1669 246.59 66.0527 245.845 66.0527C245.303 66.0527 244.784 66.1212 244.309 66.2583C243.835 66.3953 243.383 66.6237 242.954 66.9206C242.548 67.2175 242.164 67.6514 241.848 68.1996H241.689L241.531 66.3268H240.267V78.1572H241.87V71.1686C241.87 70.3921 242.028 69.7297 242.367 69.1816C242.683 68.6335 243.112 68.2224 243.654 67.9255C244.174 67.6286 244.738 67.4916 245.326 67.4916C245.71 67.4916 246.071 67.5372 246.387 67.6058C246.703 67.6743 246.974 67.8113 247.223 67.994C247.449 68.1767 247.652 68.4508 247.787 68.7705C247.923 69.0903 247.991 69.5242 247.991 70.0495V78.1344H249.594V69.8896C249.594 68.9304 249.436 68.1767 249.12 67.6286C248.781 67.0805 248.352 66.6694 247.787 66.4181Z" fill="white"/>
<path d="M261.949 73.2473C261.678 72.859 261.316 72.5393 260.887 72.2881C260.436 72.0368 259.961 71.8541 259.442 71.6714C258.922 71.5115 258.403 71.3517 257.906 71.1918C257.409 71.0319 256.935 70.8721 256.483 70.735C256.031 70.598 255.67 70.4153 255.399 70.1641C255.128 69.9357 254.993 69.5931 254.993 69.1592C254.993 68.8851 255.038 68.6339 255.151 68.4055C255.264 68.1771 255.422 67.9944 255.67 67.8574C255.896 67.6975 256.19 67.5833 256.506 67.5148C256.845 67.4234 257.228 67.4006 257.703 67.4006C258.471 67.4006 259.058 67.5148 259.442 67.7203C259.826 67.9259 260.119 68.1771 260.255 68.474C260.413 68.7709 260.481 69.0906 260.481 69.3875V69.6845H262.062C262.062 69.6159 262.062 69.5474 262.062 69.4789C262.062 69.4104 262.062 69.3419 262.062 69.2734C262.062 68.8623 261.971 68.4512 261.813 68.0629C261.655 67.6747 261.407 67.3321 261.068 67.0352C260.729 66.7383 260.277 66.487 259.735 66.3043C259.193 66.1216 258.516 66.0303 257.748 66.0303C257.048 66.0303 256.438 66.0988 255.873 66.2587C255.331 66.4185 254.857 66.6241 254.473 66.8981C254.089 67.1722 253.796 67.5148 253.615 67.903C253.412 68.2913 253.321 68.7252 253.321 69.2277C253.321 69.7986 253.434 70.2782 253.66 70.6437C253.886 71.0091 254.179 71.3288 254.563 71.5572C254.947 71.8084 255.354 71.9911 255.828 72.151C256.28 72.3109 256.754 72.4479 257.228 72.5849C257.816 72.7677 258.358 72.9275 258.9 73.0874C259.442 73.2473 259.871 73.4757 260.21 73.7497C260.548 74.0238 260.707 74.4577 260.707 75.0058C260.707 75.4398 260.571 75.8052 260.323 76.1021C260.074 76.399 259.713 76.6274 259.284 76.7873C258.855 76.9471 258.358 77.0156 257.816 77.0156C257.183 77.0156 256.619 76.9471 256.122 76.8101C255.625 76.6731 255.264 76.4447 254.993 76.1249C254.721 75.8052 254.586 75.3484 254.563 74.7546C254.563 74.7089 254.563 74.6633 254.563 74.6176C254.563 74.5719 254.563 74.5034 254.586 74.4349H253.005C252.982 74.5034 252.982 74.5491 252.982 74.6176C252.982 74.6861 252.982 74.7546 252.982 74.8003C252.982 75.3713 253.073 75.8737 253.276 76.3076C253.479 76.7416 253.773 77.107 254.157 77.4267C254.541 77.7236 255.038 77.9749 255.625 78.1347C256.212 78.2946 256.89 78.3631 257.68 78.3631C258.358 78.3631 258.968 78.2946 259.532 78.1347C260.097 77.9749 260.594 77.7693 261 77.4496C261.407 77.1527 261.746 76.7644 261.971 76.3076C262.197 75.8509 262.333 75.3256 262.333 74.7318C262.333 74.1608 262.22 73.6355 261.949 73.2473Z" fill="white"/>
<path d="M15.3408 19.0967V50.6596H19.4062V34.9695H33.2058V32.8912H19.4062V21.5861H35.4869V19.0967H15.3408Z" fill="white"/>
<path d="M43.9111 19.0967V50.6596H64.0572V48.1702H47.9539V34.9695H61.7761V32.8912H47.9539V21.5861H64.0572V19.0967H43.9111Z" fill="white"/>
<path d="M92.8535 42.2321C92.8535 40.3593 92.4018 38.852 91.4758 37.6644C90.5498 36.4767 89.398 35.4947 88.0203 34.6953C86.6426 33.896 85.1293 33.2337 83.5032 32.6855C81.8771 32.1374 80.3864 31.5665 78.9862 30.9726C77.6085 30.3788 76.4566 29.6708 75.5306 28.8943C74.6046 28.1178 74.1529 27.0672 74.1529 25.7883C74.1529 25.0575 74.311 24.3951 74.6272 23.7557C74.9434 23.1162 75.3951 22.568 76.0049 22.1113C76.6147 21.6545 77.36 21.2662 78.2634 20.9922C79.1668 20.7181 80.1832 20.5582 81.335 20.5582C83.2774 20.5582 84.9035 20.9693 86.2586 21.7915C87.6137 22.6137 88.4042 23.9155 88.6526 25.6969H91.6791C91.4984 24.5778 91.0919 23.5958 90.4821 22.7051C89.8497 21.8144 89.0592 21.0607 88.1106 20.4441C87.162 19.8274 86.0779 19.3706 84.8809 19.0509C83.6839 18.7312 82.4191 18.5713 81.1092 18.5713C79.7315 18.5713 78.4441 18.754 77.2019 19.1194C75.9597 19.4848 74.8756 20.0101 73.9496 20.6953C73.0237 21.3804 72.2783 22.2483 71.7137 23.2989C71.1717 24.3495 70.8781 25.5599 70.8781 26.9074C70.8781 28.6888 71.3298 30.1048 72.2106 31.1782C73.0914 32.2516 74.2207 33.1652 75.5758 33.8731C76.9309 34.604 78.3989 35.2206 79.9573 35.7231C81.5383 36.2255 82.9837 36.8193 84.3389 37.4588C85.694 38.0983 86.8232 38.8976 87.7041 39.834C88.5849 40.7704 89.0366 42.0037 89.0366 43.5796C89.0366 45.5437 88.3365 46.9597 86.9136 47.8504C85.5133 48.7411 83.6161 49.1978 81.2673 49.1978C79.3927 49.1978 77.9021 48.9466 76.7728 48.4442C75.6435 47.9417 74.7853 47.3479 74.1981 46.6628C73.6109 45.9776 73.2043 45.2696 73.0011 44.5159C72.7978 43.7851 72.6849 43.1456 72.6397 42.6432H69.6133C69.681 43.945 69.9972 45.1097 70.607 46.1603C71.2168 47.2109 72.0525 48.1016 73.114 48.8324C74.1755 49.5633 75.4177 50.1342 76.8406 50.5453C78.2634 50.9564 79.8218 51.162 81.5383 51.162C83.2548 51.162 84.8132 50.9564 86.2134 50.5225C87.5911 50.1114 88.7882 49.4947 89.7593 48.7182C90.7305 47.9417 91.4984 46.9825 92.0404 45.8862C92.5825 44.8128 92.8535 43.5795 92.8535 42.2321Z" fill="white"/>
<path d="M97.5967 19.0967V21.5861H109.544V50.6596H113.61V21.5861H125.535V19.0967H97.5967Z" fill="white"/>
<path d="M155.979 50.6596L141.457 19.0967H139.221L126.031 50.6368H128.087L132.016 41.3643H147.397L151.665 50.6368L155.979 50.6596ZM139.266 24.144H139.447L146.448 39.3317H132.852L139.266 24.144Z" fill="white"/>
<path d="M186.176 19.0967H183.85L173.46 45.0642H173.28L162.597 19.0967H157.786L170.84 50.6596H173.505L186.176 19.0967Z" fill="white"/>
<path d="M222.923 34.878C222.923 33.5077 222.697 32.0461 222.268 30.5159C222.177 30.1733 222.064 29.8536 221.951 29.511C221.861 29.2369 221.748 28.9628 221.658 28.6888C221.5 28.2777 221.319 27.8666 221.116 27.4555C221.116 27.4555 221.116 27.4327 221.093 27.4327C220.529 26.3136 219.828 25.2402 218.993 24.2124C218.857 24.0526 218.744 23.9155 218.609 23.7557C218.383 23.5044 218.157 23.276 217.931 23.0477C216.802 21.9286 215.469 20.9693 213.934 20.17C211.901 19.0966 209.484 18.5713 206.706 18.5713C203.951 18.5713 201.602 19.0966 199.615 20.1472C197.65 21.1977 196.024 22.5224 194.736 24.1439C193.652 25.5142 192.816 26.9759 192.229 28.5746C192.116 28.8487 192.026 29.1456 191.936 29.4425C191.665 30.3103 191.461 31.1554 191.303 32.0004C191.123 33.0053 191.032 33.9645 191.032 34.9009C191.032 36.5909 191.326 38.3723 191.936 40.2908C192.5 42.095 193.359 43.7623 194.533 45.2924C194.601 45.3838 194.668 45.498 194.759 45.5893C194.804 45.6579 194.872 45.7035 194.917 45.7721C196.159 47.3022 197.74 48.5812 199.637 49.6089C201.602 50.6824 203.974 51.2076 206.729 51.2076C208.581 51.2076 210.275 50.9564 211.788 50.454C213.301 49.9515 214.656 49.2892 215.876 48.4442C217.073 47.5991 218.135 46.6399 219.015 45.5437C219.896 44.4474 220.641 43.2826 221.206 42.0722C221.771 40.8618 222.2 39.6285 222.493 38.3952C222.516 38.2582 222.539 38.144 222.584 38.0069C222.674 37.6187 222.742 37.2304 222.787 36.865C222.855 36.1798 222.923 35.5175 222.923 34.878ZM211.246 48.1473C209.801 48.8553 208.265 49.1978 206.661 49.1978C205.012 49.1978 203.477 48.8553 202.076 48.1473C201.015 47.622 200.089 46.9368 199.231 46.0918L199.208 46.069C198.937 45.7949 198.689 45.5208 198.44 45.2011C198.124 44.8128 197.853 44.4017 197.582 43.9906C196.95 43.0086 196.43 41.9123 196.024 40.6791C195.978 40.5192 195.933 40.3821 195.888 40.2223C195.391 38.5779 195.143 36.8193 195.143 34.878C195.143 33.4164 195.278 32.0461 195.572 30.7443C195.707 30.1733 195.843 29.6252 196.024 29.077C196.611 27.3185 197.424 25.8111 198.463 24.555C199.502 23.2989 200.699 22.3168 202.099 21.6088C203.499 20.9008 205.035 20.5582 206.684 20.5582C208.31 20.5582 209.846 20.9008 211.269 21.6088C212.714 22.3168 213.979 23.2989 215.063 24.555C216.147 25.8111 217.005 27.3185 217.638 29.077C218.27 30.8356 218.586 32.7541 218.586 34.878C218.586 36.6138 218.36 38.2125 217.954 39.697C217.909 39.8797 217.863 40.0396 217.796 40.1994C217.751 40.3593 217.705 40.4963 217.638 40.6562C217.05 42.3234 216.237 43.7623 215.221 44.9727C215.153 45.0412 215.108 45.1097 215.063 45.1783C215.04 45.2011 215.018 45.2239 214.995 45.2696C213.911 46.5029 212.669 47.4621 211.246 48.1473Z" fill="white"/>
<path d="M285.483 34.878C285.483 33.5077 285.257 32.0461 284.828 30.5159C284.738 30.1733 284.625 29.8536 284.512 29.511C284.422 29.2369 284.309 28.9628 284.218 28.6888C284.06 28.2777 283.88 27.8666 283.676 27.4555C283.676 27.4555 283.676 27.4327 283.654 27.4327C283.089 26.3136 282.389 25.2402 281.553 24.2124C281.418 24.0526 281.305 23.9155 281.169 23.7557C280.944 23.5044 280.718 23.276 280.492 23.0477C279.363 21.9286 278.03 20.9693 276.494 20.17C274.462 19.0966 272.045 18.5713 269.267 18.5713C266.512 18.5713 264.163 19.0966 262.175 20.1472C260.21 21.1977 258.584 22.5224 257.297 24.1439C256.213 25.5142 255.377 26.9759 254.79 28.5746C254.677 28.8487 254.587 29.1456 254.496 29.4425C254.225 30.3103 254.022 31.1554 253.864 32.0004C253.683 33.0053 253.593 33.9645 253.593 34.9009C253.593 36.5909 253.886 38.3723 254.496 40.2908C255.061 42.095 255.919 43.7623 257.093 45.2924C257.161 45.3838 257.229 45.498 257.319 45.5893C257.365 45.6579 257.432 45.7035 257.477 45.7721C258.72 47.3022 260.301 48.5812 262.198 49.6089C264.163 50.6824 266.534 51.2076 269.29 51.2076C271.142 51.2076 272.835 50.9564 274.349 50.454C275.862 49.9515 277.217 49.2892 278.437 48.4442C279.634 47.5991 280.695 46.6399 281.576 45.5437C282.457 44.4474 283.202 43.2826 283.767 42.0722C284.331 40.8618 284.76 39.6285 285.054 38.3952C285.077 38.2582 285.099 38.144 285.144 38.0069C285.235 37.6187 285.302 37.2304 285.348 36.865C285.415 36.1798 285.483 35.5175 285.483 34.878ZM273.829 48.1473C272.384 48.8553 270.848 49.1978 269.244 49.1978C267.596 49.1978 266.06 48.8553 264.66 48.1473C263.598 47.622 262.672 46.9368 261.814 46.0918L261.791 46.069C261.52 45.7949 261.272 45.5208 261.023 45.2011C260.707 44.8128 260.436 44.4017 260.165 43.9906C259.533 43.0086 259.013 41.9123 258.607 40.6791C258.562 40.5192 258.516 40.3821 258.471 40.2223C257.974 38.5779 257.726 36.8193 257.726 34.878C257.726 33.4164 257.861 32.0461 258.155 30.7443C258.29 30.1733 258.426 29.6252 258.607 29.077C259.194 27.3185 260.007 25.8111 261.046 24.555C262.085 23.2989 263.282 22.3168 264.682 21.6088C266.082 20.9008 267.618 20.5582 269.267 20.5582C270.893 20.5582 272.429 20.9008 273.852 21.6088C275.297 22.3168 276.562 23.2989 277.646 24.555C278.73 25.8111 279.588 27.3185 280.221 29.077C280.853 30.8356 281.169 32.7541 281.169 34.878C281.169 36.6138 280.943 38.2125 280.537 39.697C280.492 39.8797 280.447 40.0396 280.379 40.1994C280.334 40.3593 280.289 40.4963 280.221 40.6562C279.634 42.3234 278.82 43.7623 277.804 44.9727C277.736 45.0412 277.691 45.1097 277.646 45.1783C277.623 45.2011 277.601 45.2239 277.578 45.2696C276.472 46.5029 275.229 47.4621 273.829 48.1473Z" fill="white"/>
<path d="M234.576 48.1702V19.0967H230.533V50.6596H250.679V48.1702H234.576Z" fill="white"/>
<path d="M141.389 4.7998H145.726L141.389 14.4605H139.65L141.389 4.7998Z" fill="white"/>
<path d="M143.693 6.12444L141.638 10.6922L142.451 6.12444H143.693ZM145.726 4.7998H141.389L139.65 14.4605H141.389L145.726 4.7998Z" fill="white"/>
</svg>
