<svg width="100" height="100" viewBox="0 0 100 100" fill="none" xmlns="http://www.w3.org/2000/svg">
<path d="M50.9546 98.6034C50.9421 97.2834 50.8796 95.9509 50.7671 94.6433C50.1422 87.4204 47.9924 80.5835 44.3804 74.2946V74.2821L43.9554 73.5474C39.6435 66.3245 33.5193 60.2597 26.2452 55.9882L25.9452 55.8139C25.9077 55.789 25.8702 55.7765 25.8327 55.7516L25.7702 55.7143C18.2462 51.4179 9.67224 49.1514 0.948325 49.1514V51.0318C8.97232 51.0318 16.8713 53.0368 23.883 56.8226C9.33478 65.7641 0.260913 81.6918 0.0984329 98.7653L0.0859375 99.7242H0.760849H1.9857V99.6993C18.7836 99.2884 34.3941 90.3718 43.268 76.1626C46.4176 81.9534 48.3049 88.2049 48.8798 94.8052C48.9923 96.063 49.0548 97.3456 49.0548 98.6159L49.0673 99.5499H50.0172V98.6159L50.9546 98.6034ZM2.0232 97.8313C2.52313 81.4179 11.5345 66.2373 25.7827 57.906C32.5069 61.9409 38.1687 67.5947 42.2182 74.2946C33.7942 88.4664 18.5086 97.4079 2.0232 97.8313Z" fill="white"/>
<path d="M50.0174 1.39423V0.460237H49.0675L49.055 1.39423C49.0425 2.66447 48.98 3.94716 48.88 5.20494C48.3051 11.7927 46.4178 18.0568 43.2682 23.8475C34.4068 9.61341 18.8088 0.709303 1.9984 0.298344V0.273438H0.773551H0.0986328L0.111136 1.23234C0.273615 18.3058 9.34747 34.2336 23.8957 43.1751C16.884 46.9609 8.98502 48.9658 0.961028 48.9658V50.8463C9.68494 50.8463 18.2589 48.5798 25.7829 44.2834L25.8454 44.246C25.8829 44.2211 25.9204 44.2087 25.9579 44.1838L26.2579 44.0094C33.532 39.7504 39.6562 33.6856 43.9682 26.4503L44.3931 25.7155V25.7031C47.9926 19.4266 50.1424 12.5773 50.7798 5.35438C50.8923 4.04679 50.9548 2.71428 50.9673 1.39423H50.0174ZM42.2184 25.7031C38.1689 32.403 32.5071 38.0568 25.7829 42.0916C11.5347 33.7604 2.51083 18.5798 2.0234 2.16634C18.5088 2.58975 33.7944 11.5312 42.2184 25.7031Z" fill="white"/>
<path d="M49.9667 98.6051V99.5391H50.9166L50.9291 98.6051C50.9416 97.3349 51.004 96.0522 51.104 94.7944C51.679 88.2066 53.5662 81.9426 56.7158 76.1518C65.5897 90.3735 81.1878 99.2776 97.9982 99.6886V99.7135H99.223H99.8979L99.8854 98.7546C99.7229 81.6811 90.6491 65.7533 76.1009 56.8119C83.1125 53.0261 91.0115 51.0211 99.0355 51.0211V49.1406C90.3116 49.1406 81.7377 51.4071 74.2136 55.7035L74.1512 55.7409C74.1137 55.7658 74.0762 55.7782 74.0387 55.8031L73.7387 55.9775C66.4646 60.2365 60.3404 66.3013 56.0284 73.5366L55.6035 74.2714V74.2838C52.0039 80.5603 49.8542 87.4096 49.2168 94.6325C49.1043 95.9401 49.0418 97.2726 49.0293 98.5927L49.9667 98.6051ZM57.7782 74.2963C61.8277 67.5964 67.4895 61.9426 74.2136 57.9077C88.4494 66.239 97.4732 81.432 97.9732 97.833C81.4877 97.4096 66.2022 88.4681 57.7782 74.2963Z" fill="white"/>
<path d="M49.0293 1.40839C49.0418 2.72844 49.1043 4.06095 49.2168 5.36854C49.8417 12.5915 51.9914 19.4283 55.6035 25.7172V25.7297L56.0284 26.4644C60.3404 33.6873 66.4646 39.7521 73.7387 44.0236L74.0387 44.1979C74.0762 44.2228 74.1137 44.2353 74.1512 44.2602L74.2136 44.2976C81.7377 48.594 90.3116 50.8605 99.0355 50.8605V48.98C91.0115 48.98 83.1125 46.975 76.1009 43.1892C90.6491 34.2477 99.7229 18.32 99.8854 1.2465L99.8979 0.287598H99.223H97.9982V0.312504C81.2003 0.723463 65.5897 9.64003 56.7158 23.8492C53.5662 18.0709 51.679 11.8069 51.104 5.20665C50.9915 3.94887 50.9291 2.66618 50.9291 1.39594L50.9166 0.461944H49.9667V1.39594L49.0293 1.40839ZM97.9732 2.16805C97.4732 18.5815 88.4619 33.7621 74.2136 42.0933C67.4895 38.0585 61.8277 32.4047 57.7782 25.7048C66.2022 11.5329 81.4877 2.59146 97.9732 2.16805Z" fill="white"/>
<path d="M100 100H0V0H100V100ZM1.88726 98.1196H98.1127V1.88045H1.88726V98.1196Z" fill="white"/>
<path d="M58.5547 58.704L50.1307 40.6841H48.8434L41.1943 58.704H42.3817L44.6564 53.3989H53.5678L56.0425 58.704H58.5547ZM48.8559 43.5732H48.9559L53.0179 52.2532H45.1438L48.8559 43.5732Z" fill="white"/>
<path d="M50.0944 32.5151H52.6066L50.0944 38.0444H49.082L50.0944 32.5151Z" fill="white"/>
<path d="M51.4296 33.2748L50.2422 35.89L50.7172 33.2748H51.4296ZM52.6044 32.5151H50.0798L49.0674 38.0319H50.0798L52.6044 32.5151Z" fill="white"/>
</svg>
