<svg width="60" height="60" viewBox="0 0 60 60" fill="none" xmlns="http://www.w3.org/2000/svg">
<path d="M30.4637 59.1631C30.4562 58.3711 30.4189 57.5716 30.3516 56.7871C29.978 52.4533 28.6928 48.3512 26.5334 44.5778V44.5704L26.2794 44.1295C23.7015 39.7958 20.0403 36.1569 15.6916 33.594L15.5123 33.4894C15.4898 33.4745 15.4674 33.467 15.445 33.4521L15.4076 33.4296C10.9095 30.8518 5.78374 29.4919 0.568298 29.4919V30.6202C5.36531 30.6202 10.0876 31.8232 14.2794 34.0947C5.582 39.4595 0.15734 49.0162 0.0602045 59.2603L0.0527344 59.8356H0.456219H1.18848V59.8207C11.2308 59.5741 20.5633 54.2242 25.8684 45.6986C27.7514 49.1731 28.8796 52.924 29.2233 56.8842C29.2906 57.6389 29.328 58.4085 29.328 59.1706L29.3354 59.731H29.9033V59.1706L30.4637 59.1631ZM1.21089 58.6999C1.50977 48.8518 6.89707 39.7435 15.4151 34.7447C19.4351 37.1656 22.8199 40.5579 25.2408 44.5778C20.2047 53.081 11.0664 58.4458 1.21089 58.6999Z" fill="white"/>
<path d="M29.9036 0.836861V0.276463H29.3358L29.3283 0.836861C29.3208 1.599 29.2835 2.36862 29.2237 3.12329C28.88 7.07596 27.7517 10.8344 25.8688 14.3088C20.5711 5.76837 11.2461 0.425902 1.19629 0.179327V0.164383H0.464036H0.0605469L0.0680216 0.739725C0.165157 10.9838 5.58981 20.5405 14.2872 25.9054C10.0954 28.1768 5.37313 29.3798 0.576115 29.3798V30.5081C5.79156 30.5081 10.9173 29.1482 15.4155 26.5704L15.4528 26.5479C15.4752 26.533 15.4977 26.5255 15.5201 26.5106L15.6994 26.406C20.0481 23.8506 23.7094 20.2117 26.2872 15.8705L26.5412 15.4296V15.4222C28.6932 11.6563 29.9784 7.5467 30.3594 3.21295C30.4267 2.42839 30.464 1.62889 30.4715 0.836861H29.9036ZM25.2411 15.4222C22.8202 19.4421 19.4354 22.8344 15.4155 25.2553C6.89741 20.2565 1.50264 11.1482 1.21123 1.30012C11.0668 1.55417 20.205 6.91905 25.2411 15.4222Z" fill="white"/>
<path d="M29.8739 59.1631V59.7235H30.4417L30.4492 59.1631C30.4567 58.401 30.494 57.6314 30.5538 56.8767C30.8975 52.924 32.0258 49.1656 33.9087 45.6912C39.2139 54.2242 48.5389 59.5666 58.5887 59.8132V59.8281H59.3209H59.7244L59.717 59.2528C59.6198 49.0087 54.1952 39.4521 45.4978 34.0872C49.6896 31.8157 54.4119 30.6127 59.2089 30.6127V29.4844C53.9934 29.4844 48.8677 30.8443 44.3695 33.4222L44.3322 33.4446C44.3097 33.4595 44.2873 33.467 44.2649 33.4819L44.0856 33.5866C39.7369 36.142 36.0756 39.7808 33.4978 44.122L33.2437 44.5629V44.5704C31.0918 48.3362 29.8066 52.4458 29.4256 56.7796C29.3583 57.5641 29.3209 58.3636 29.3135 59.1557L29.8739 59.1631ZM34.5439 44.5778C36.9648 40.5579 40.3496 37.1656 44.3695 34.7447C52.8801 39.7435 58.2749 48.8593 58.5738 58.6999C48.7182 58.4458 39.58 53.0809 34.5439 44.5778Z" fill="white"/>
<path d="M29.3135 0.844338C29.3209 1.63637 29.3583 2.43587 29.4256 3.22043C29.7992 7.55418 31.0843 11.6563 33.2437 15.4296V15.4371L33.4978 15.878C36.0756 20.2117 39.7369 23.8506 44.0856 26.4135L44.2649 26.5181C44.2873 26.533 44.3097 26.5405 44.3322 26.5554L44.3695 26.5778C48.8677 29.1557 53.9934 30.5156 59.2089 30.5156V29.3873C54.4119 29.3873 49.6896 28.1843 45.4978 25.9128C54.1952 20.5479 59.6198 10.9913 59.717 0.747202L59.7244 0.17186H59.3209H58.5887V0.186804C48.5464 0.433379 39.2139 5.78332 33.9087 14.3088C32.0258 10.8418 30.8975 7.08344 30.5538 3.12329C30.4866 2.36862 30.4492 1.59901 30.4492 0.836866L30.4417 0.276467H29.8739V0.836866L29.3135 0.844338ZM58.5738 1.30013C58.2749 11.1482 52.8876 20.2565 44.3695 25.2553C40.3496 22.8344 36.9648 19.4421 34.5439 15.4222C39.58 6.91906 48.7182 1.55418 58.5738 1.30013Z" fill="white"/>
<path d="M59.7833 60H0V0H59.7833V60ZM1.12827 58.8717H58.655V1.12827H1.12827V58.8717Z" fill="white"/>
<path d="M35.0065 35.2229L29.9704 24.4109H29.2008L24.6279 35.2229H25.3378L26.6977 32.0398H32.0252L33.5046 35.2229H35.0065ZM29.2083 26.1444H29.268L31.6964 31.3524H26.9891L29.2083 26.1444Z" fill="white"/>
<path d="M29.948 19.5093H31.4499L29.948 22.8269H29.3428L29.948 19.5093Z" fill="white"/>
<path d="M30.7472 19.9651L30.0373 21.5342L30.3213 19.9651H30.7472ZM31.4495 19.5093H29.9402L29.335 22.8194H29.9402L31.4495 19.5093Z" fill="white"/>
</svg>
