<svg width="148" height="162" viewBox="0 0 148 162" fill="none" xmlns="http://www.w3.org/2000/svg">
<path d="M10.6885 24C25.1488 9.7766 44.9959 1 66.8956 1C111.136 1 147 36.8172 147 81C147 125.183 111.136 161 66.8956 161C39.5807 161 15.459 147.346 1 126.5" stroke="#8E8C87"/>
<path d="M10.6885 24C25.1488 9.7766 44.9959 1 66.8956 1C111.136 1 147 36.8172 147 81C147 125.183 111.136 161 66.8956 161C39.5807 161 15.459 147.346 1 126.5" stroke="black" stroke-opacity="0.2"/>
<rect x="57.932" y="75.7157" width="28.8" height="18.8" stroke="white" stroke-width="1.2"/>
<path opacity="0.4" d="M85.2952 85.2181H89.6146V66.8848H61.2812V76.0514" stroke="white" stroke-width="1.2"/>
<path d="M58.1641 82.2734H86.4974" stroke="white" stroke-width="1.2"/>
<path opacity="0.4" d="M62.332 90.1157H68.9987" stroke="white" stroke-width="1.2"/>
</svg>
