<svg width="200" height="201" viewBox="0 0 200 201" fill="none" xmlns="http://www.w3.org/2000/svg">
<path d="M109 102.302L95.5 112.695L95.5 91.9099L109 102.302Z" fill="white"/>
<path d="M9.03991 141.068C8.78747 141.18 8.67359 141.476 8.78678 141.727C18.1164 162.489 34.2524 179.451 54.5338 189.804C74.9638 200.233 98.3581 203.322 120.795 198.552C143.231 193.782 163.346 181.444 177.766 163.606C192.187 145.768 200.037 123.514 200 100.577C199.963 77.6386 192.041 55.4107 177.563 37.6193C163.085 19.8279 142.931 7.55466 120.479 2.8572C98.0272 -1.84026 74.643 1.32365 54.2468 11.8185C33.9989 22.237 17.9177 39.2514 8.65505 60.0426C8.54267 60.2948 8.65751 60.5902 8.91031 60.7013C9.16311 60.8124 9.45815 60.6972 9.57054 60.445C18.7408 39.8638 34.6604 23.0212 54.7043 12.7077C74.8966 2.31779 98.047 -0.814478 120.274 3.83601C142.501 8.4865 162.454 20.637 176.788 38.2505C191.121 55.864 198.963 77.8696 199 100.578C199.036 123.287 191.265 145.317 176.989 162.977C162.712 180.637 142.799 192.852 120.587 197.574C98.3745 202.296 75.2142 199.238 54.9885 188.914C34.9114 178.665 18.9376 161.874 9.70096 141.322C9.58776 141.07 9.29235 140.956 9.03991 141.068Z" fill="white"/>
</svg>
