<svg width="100" height="100" viewBox="0 0 100 100" fill="none" xmlns="http://www.w3.org/2000/svg">
<path d="M52.55 59.67C56.84 58.54 60 54.64 60 50C60 44.48 55.56 40 50 40C43.33 40 40 45.56 40 45.56M40 45.56V41M40 45.56H42.01H44.44" stroke="white" stroke-width="1.5" stroke-linecap="round" stroke-linejoin="round"/>
<path opacity="0.4" d="M40 50C40 55.52 44.48 60 50 60" stroke="white" stroke-width="1.5" stroke-linecap="round" stroke-linejoin="round" stroke-dasharray="3 3"/>
<path d="M4.7485 70.0637C4.49606 70.1756 4.38202 70.4713 4.49646 70.7226C9.17653 80.9995 17.2005 89.3946 27.2669 94.5332C37.4819 99.7477 49.179 101.292 60.3973 98.907C71.6156 96.5221 81.6729 90.353 88.8832 81.434C96.0935 72.515 100.018 61.3883 99.9999 49.9194C99.9814 38.4504 96.0207 27.3365 88.7816 18.4408C81.5426 9.54506 71.4654 3.40844 60.2395 1.0597C49.0136 -1.28903 37.3215 0.292927 27.1234 5.54035C17.0736 10.7114 9.07675 19.1323 4.42986 29.4242C4.31623 29.6759 4.43122 29.9713 4.68402 30.0824C4.93682 30.1935 5.2317 30.0783 5.34538 29.8266C9.89994 19.7447 17.7351 11.4957 27.5809 6.42954C37.5751 1.28707 49.0333 -0.263245 60.0347 2.03851C71.0361 4.34027 80.9117 10.3542 88.006 19.0719C95.1002 27.7897 98.9818 38.6814 98.9999 49.921C99.0181 61.1605 95.1716 72.0647 88.1055 80.8053C81.0394 89.5459 71.1832 95.5916 60.1894 97.9289C49.1955 100.266 37.7323 98.7528 27.7216 93.6425C17.8595 88.6082 9.99773 80.3845 5.41068 70.3173C5.29618 70.066 5.00094 69.9518 4.7485 70.0637Z" fill="white"/>
</svg>
