<?xml version="1.0" encoding="utf-8"?><svg viewBox="0 0 72 72" xmlns="http://www.w3.org/2000/svg" xmlns:xlink="http://www.w3.org/1999/xlink"><style>:root>svg{display:none}:root>svg:target{display:block}</style><svg fill="none" viewBox="0 0 24 24" id="arr" xmlns="http://www.w3.org/2000/svg"><path d="M5 12h14M14 7l5 5-5 5" stroke="#fff" stroke-width="1.4" stroke-linecap="round" stroke-linejoin="round"/></svg><svg fill="none" viewBox="0 0 24 24" id="arrow" xmlns="http://www.w3.org/2000/svg"><path d="M5 12h14M14 7l5 5-5 5" stroke="#fff" stroke-width="1.4" stroke-linecap="round" stroke-linejoin="round"/></svg><svg fill="none" viewBox="0 0 24 24" id="basket" xmlns="http://www.w3.org/2000/svg"><path d="M2 2.661h2.85L5.21 5.5m15.415 10.738H6.701l-.381-3M5.21 5.5H21.5l-.875 6.5L6.32 13.238M5.21 5.5l1.11 7.738" stroke="#fff" stroke-width="1.2"/><circle opacity=".5" cx="7.5" cy="20" r="1" stroke="#fff" stroke-width="1.2" stroke-linecap="round" stroke-linejoin="round"/><circle opacity=".5" cx="18.5" cy="20" r="1" stroke="#fff" stroke-width="1.2" stroke-linecap="round" stroke-linejoin="round"/></svg><svg fill="none" viewBox="0 0 48 48" id="basket-icon" xmlns="http://www.w3.org/2000/svg"><path d="M14 14.661h2.85l.36 2.839m15.416 10.738H18.7l-.381-3M17.21 17.5H33.5l-.874 6.5-14.306 1.238M17.21 17.5l1.11 7.738" stroke="#8E8C87" stroke-width="1.2"/><path d="M14 14.661h2.85l.36 2.839m15.416 10.738H18.7l-.381-3M17.21 17.5H33.5l-.874 6.5-14.306 1.238M17.21 17.5l1.11 7.738" stroke="#000" stroke-opacity=".2" stroke-width="1.2"/><g opacity=".5" stroke-width="1.2" stroke-linecap="round" stroke-linejoin="round"><circle cx="19.5" cy="32" r="1" stroke="#8E8C87"/><circle cx="19.5" cy="32" r="1" stroke="#000" stroke-opacity=".2"/></g><g opacity=".5" stroke-width="1.2" stroke-linecap="round" stroke-linejoin="round"><circle cx="30.5" cy="32" r="1" stroke="#8E8C87"/><circle cx="30.5" cy="32" r="1" stroke="#000" stroke-opacity=".2"/></g><rect x=".5" y=".5" width="47" height="47" rx="23.5" stroke="#8E8C87"/><rect x=".5" y=".5" width="47" height="47" rx="23.5" stroke="#000" stroke-opacity=".2"/></svg><svg fill="none" viewBox="0 0 24 24" id="basket2" xmlns="http://www.w3.org/2000/svg"><path d="M2 2.661h2.85l.36 2.84m15.415 10.737H6.701l-.381-3M5.21 5.5H21.5l-.875 6.5L6.32 13.238M5.21 5.5l1.11 7.738" stroke="#37352D" stroke-width="1.2"/><circle opacity=".5" cx="7.5" cy="20" r="1" stroke="#37352D" stroke-width="1.2" stroke-linecap="round" stroke-linejoin="round"/><circle opacity=".5" cx="18.5" cy="20" r="1" stroke="#37352D" stroke-width="1.2" stroke-linecap="round" stroke-linejoin="round"/></svg><svg fill="none" viewBox="0 0 48 48" id="benft" xmlns="http://www.w3.org/2000/svg"><path d="M40.722 16.944c1.065 1.978.627 4.57-1.315 6.041a4.751 4.751 0 0 0-1.836 4.433c.429 3.117-2.236 5.782-5.353 5.354a4.751 4.751 0 0 0-4.433 1.836c-1.9 2.507-5.67 2.507-7.57 0a4.75 4.75 0 0 0-4.433-1.836c-3.117.428-5.782-2.237-5.354-5.354a4.75 4.75 0 0 0-1.836-4.433c-2.507-1.9-2.507-5.67 0-7.57a4.75 4.75 0 0 0 1.836-4.433C10 7.865 12.665 5.2 15.782 5.628a4.75 4.75 0 0 0 4.432-1.836c1.901-2.507 5.67-2.507 7.571 0a4.75 4.75 0 0 0 4.433 1.836c2.667-.366 5.002 1.531 5.353 4.04" stroke="#fff" stroke-width="1.4" stroke-linecap="round"/><path d="M23.73 12.927a.3.3 0 0 1 .539 0l1.339 2.713a1.7 1.7 0 0 0 1.28.93l2.995.436a.3.3 0 0 1 .166.511l-2.167 2.113a1.7 1.7 0 0 0-.489 1.504l.512 2.983a.3.3 0 0 1-.436.316l-2.678-1.408a1.7 1.7 0 0 0-1.582 0l-2.68 1.408a.3.3 0 0 1-.434-.316l.511-2.983a1.7 1.7 0 0 0-.489-1.504l-2.167-2.113a.3.3 0 0 1 .167-.511l2.994-.436a1.7 1.7 0 0 0 1.28-.93l1.34-2.713Z" stroke="#fff" stroke-width="1.4"/><path opacity=".6" d="m10.863 30.394-3.665 5.234a1 1 0 0 0 .783 1.573l4.813.175a1 1 0 0 1 .891.623l1.81 4.464a1 1 0 0 0 1.746.197l4.618-6.594M26.05 35.937l4.708 6.724a1 1 0 0 0 1.746-.198l1.81-4.464a1 1 0 0 1 .891-.623l4.814-.175a1 1 0 0 0 .782-1.573l-3.627-5.18" stroke="#fff" stroke-width="1.4"/></svg><svg fill="none" viewBox="0 0 32 32" id="best" xmlns="http://www.w3.org/2000/svg"><circle cx="16" cy="16" r="16" fill="#fff" fill-opacity=".3"/><g filter="url(#aga)"><circle cx="16" cy="16" r="4" fill="#fff"/></g><defs><filter id="aga" x="4" y="8" width="24" height="24" filterUnits="userSpaceOnUse" color-interpolation-filters="sRGB"><feFlood flood-opacity="0" result="BackgroundImageFix"/><feColorMatrix in="SourceAlpha" values="0 0 0 0 0 0 0 0 0 0 0 0 0 0 0 0 0 0 127 0" result="hardAlpha"/><feOffset dy="4"/><feGaussianBlur stdDeviation="4"/><feComposite in2="hardAlpha" operator="out"/><feColorMatrix values="0 0 0 0 1 0 0 0 0 1 0 0 0 0 1 0 0 0 0.8 0"/><feBlend in2="BackgroundImageFix" result="effect1_dropShadow_124_81265"/><feBlend in="SourceGraphic" in2="effect1_dropShadow_124_81265" result="shape"/></filter></defs></svg><svg fill="none" viewBox="0 0 72 72" id="call" xmlns="http://www.w3.org/2000/svg"><path stroke="#fff" stroke-width="1.2" d="M29.6 26.6h12.8v18.8H29.6z"/><path opacity=".5" d="M34 28.738h4M35 43h2" stroke="#fff" stroke-width="1.2"/><rect x=".5" y=".5" width="71" height="71" rx="35.5" stroke="#4E4B42"/></svg><svg fill="none" viewBox="0 0 21 8" id="catalog" xmlns="http://www.w3.org/2000/svg"><path d="M.5 1h20M.5 7h20" stroke="#fff" stroke-width="1.2"/></svg><svg viewBox="0 0 30 18" id="cmenu1" xmlns="http://www.w3.org/2000/svg"><path d="M.6 1.202h28.8v2.8H.6zM9.545 4.602v2h10.909v-2M15 4.602v2"/><path d="M.6 3.998h2.8v12.8H.6v-12.8ZM26.6 3.998h2.8v12.8h-2.8v-12.8Z"/></svg><svg viewBox="0 0 30 30" id="cmenu2" xmlns="http://www.w3.org/2000/svg"><path d="M3 21.5h24m0 3H3m0-6h24M3 4.6h3.242M27 4.6h-3.007M.6 4.6h2.8v24.8H.6V4.6ZM26.6 4.6h2.8v24.8h-2.8V4.6ZM24 17.973V1H6v16.973"/></svg><svg viewBox="0 0 32 37" id="cmenu3" xmlns="http://www.w3.org/2000/svg"><path d="m13.322 12.796 3.607-4.972m0 0 4.651-6.412c.513.514 1.289 1.889.286 3.272l-2.453 3.382-2.485-.242ZM19.77 18.717l4.77-3.869m0 0 6.153-4.99c-.541-.485-1.956-1.185-3.282-.11l-3.245 2.633.375 2.467ZM12.461 12.39l1.532 1.111-1.418 2.786a37.862 37.862 0 0 1-6.935 9.56l-2.207 2.212L1.9 26.948l1.419-2.785a37.864 37.864 0 0 1 6.935-9.56l2.207-2.213ZM20.221 19.554l-1.192-1.47-2.705 1.566a37.862 37.862 0 0 0-9.173 7.44l-2.09 2.323 1.192 1.47 2.705-1.566a37.863 37.863 0 0 0 9.173-7.44l2.09-2.323Z"/><path d="M5.751 30.382a2.362 2.362 0 0 1-3.185-2.96"/></svg><svg viewBox="0 0 32 32" id="cmenu4" xmlns="http://www.w3.org/2000/svg"><path d="M4 3.6h24m0 3H4M13.5 3.6v3m-5-3v3m10-3v3m5-3v3M13.5 25.4v3m-5-3v3m10-3v3m5-3v3"/><circle cx="9.018" cy="11.433" r="1.4"/><circle cx="14.518" cy="18.488" r="2.9"/><path d="M23.062 13.536c-.57.86-1.245 1.496-1.85 1.844-.64.367-1.028.326-1.196.214-.17-.112-.357-.452-.267-1.185.085-.692.41-1.562.98-2.422.57-.86 1.246-1.496 1.851-1.844.64-.367 1.027-.326 1.196-.214.169.112.357.452.267 1.185-.085.692-.41 1.562-.98 2.422ZM4 25.4h24m0 3H4M1.6 3.6h2.8v24.8H1.6V3.6ZM27.6 3.6h2.8v24.8h-2.8V3.6Z"/></svg><svg fill="none" viewBox="0 0 24 24" id="comm" xmlns="http://www.w3.org/2000/svg"><path d="m9.175 17.422-.174-.17H2.6V3.6h18.8v13.653h-6.401l-.174.17L12 20.162l-2.825-2.74Z" stroke="#fff" stroke-width="1.2"/><path opacity=".5" d="M6 8.898h12M6 11.905h6.26" stroke="#fff" stroke-width="1.2"/></svg><svg fill="none" viewBox="0 0 16 16" id="del" xmlns="http://www.w3.org/2000/svg"><path d="m12.665 3.333-9.333 9.334m0-9.334 9.333 9.334" stroke="#fff" stroke-width="1.2" stroke-linejoin="round"/></svg><svg fill="none" viewBox="0 0 72 72" id="email" xmlns="http://www.w3.org/2000/svg"><path d="M27 42.738h18v-14H27v5.25" stroke="#fff" stroke-width="1.2"/><path opacity=".5" d="M32 39.738h-6M30 36.738h-4" stroke="#fff" stroke-width="1.2"/><path d="m42 31.738-6 4-6-4" stroke="#fff" stroke-width="1.2"/><rect x=".5" y=".5" width="71" height="71" rx="35.5" stroke="#4E4B42"/></svg><svg fill="none" viewBox="0 0 35 33" id="explanation" xmlns="http://www.w3.org/2000/svg"><path d="M34.44 12.8v7.68L23.52 20l6.36 8.76-6.84 4.08-5.4-9.84-5.4 9.84-6.72-4.08L11.76 20l-10.8.48V12.8l10.8.6-6.24-8.88L12.24.44l5.4 9.84 5.4-9.84 6.84 4.08-6.36 8.88 10.92-.6Z" fill="#fff" fill-opacity=".6"/></svg><svg fill="none" viewBox="0 0 24 24" id="icon-mail" xmlns="http://www.w3.org/2000/svg"><path d="M3 18.738h18v-14H3v5.25" stroke="#fff" stroke-width="1.2"/><path opacity=".5" d="M8 15.738H2M6 12.738H2" stroke="#fff" stroke-width="1.2"/><path d="m18 7.738-6 4-6-4" stroke="#fff" stroke-width="1.2"/></svg><svg fill="none" viewBox="0 0 22 18" id="icon-mail2" xmlns="http://www.w3.org/2000/svg"><path d="M6 17h13a2 2 0 0 0 2-2V3a2 2 0 0 0-2-2H3a2 2 0 0 0-2 2v2.5" stroke="#E0AB31" stroke-width="1.5" stroke-linecap="round" stroke-linejoin="round"/><path opacity=".6" d="M7 13H1M5 10H1M5 5l6 4 6-4" stroke="#E0AB31" stroke-width="1.5" stroke-linecap="round" stroke-linejoin="round"/></svg><svg fill="none" viewBox="0 0 16 16" id="li" xmlns="http://www.w3.org/2000/svg"><path d="M3.971 6.938A7.946 7.946 0 0 1 0 8c1.396 0 2.767.367 3.971 1.062l.01.006.018.01.048.028a8.069 8.069 0 0 1 2.833 2.84l.068.12v.002A8.046 8.046 0 0 1 8 16a8.046 8.046 0 0 1 1.052-3.932v-.002l.068-.12a8.069 8.069 0 0 1 2.833-2.84l.048-.028.018-.01.01-.006A7.946 7.946 0 0 1 16 8a7.946 7.946 0 0 1-3.971-1.062l-.01-.006-.018-.01-.048-.028a8.07 8.07 0 0 1-2.833-2.84l-.068-.12v-.001A8.046 8.046 0 0 1 8 0a8.046 8.046 0 0 1-1.052 3.933v.002l-.068.118a8.07 8.07 0 0 1-2.833 2.841l-.048.028-.018.01-.01.006Z" fill="#fff"/></svg><svg fill="none" viewBox="0 0 16 16" id="link" xmlns="http://www.w3.org/2000/svg"><path d="M3.334 8h9.333M9.334 4.667 12.667 8l-3.333 3.333" stroke="#E0AB31" stroke-width="1.4" stroke-linecap="round" stroke-linejoin="round"/></svg><svg fill="none" viewBox="0 0 48 49" id="mail" xmlns="http://www.w3.org/2000/svg"><path d="M5 38.5h40v-28H3v11.491" stroke="#fff" stroke-width="1.4"/><path d="m8 15.555 16 10 16-10" stroke="#fff" stroke-width="1.4"/><path opacity=".5" d="M12.387 32.5H5.546m8.454-4H2" stroke="#fff" stroke-width="1.4"/></svg><svg fill="none" viewBox="0 0 72 72" id="map" xmlns="http://www.w3.org/2000/svg"><path opacity=".5" d="M35.999 37.12a3.12 3.12 0 1 0 0-6.24 3.12 3.12 0 0 0 0 6.24Z" stroke="#E0AB31" stroke-width="1.5"/><path d="M43.4 34c0 3.487-1.882 6.344-3.832 8.365a20.56 20.56 0 0 1-2.67 2.318 17.796 17.796 0 0 1-.898.613 20.56 20.56 0 0 1-3.568-2.931C30.482 40.345 28.6 37.487 28.6 34a7.4 7.4 0 0 1 14.8 0Z" stroke="#fff" stroke-width="1.2"/><rect x=".5" y=".5" width="71" height="71" rx="35.5" stroke="#4E4B42"/></svg><svg fill="none" viewBox="0 0 64 32" id="mission" xmlns="http://www.w3.org/2000/svg"><path d="M48.116 4.247A31.785 31.785 0 0 1 64 0H0c5.583 0 11.07 1.467 15.884 4.247l.04.024c.024.016.048.024.072.04l.192.113a32.277 32.277 0 0 1 11.333 11.362l.272.476v.008a32.183 32.183 0 0 1 4.087 13.167c.072.847.112 1.709.12 2.563.008-.854.048-1.716.12-2.563a32.182 32.182 0 0 1 4.087-13.167v-.008l.272-.476A32.276 32.276 0 0 1 47.812 4.424l.192-.113c.024-.016.048-.024.072-.04l.04-.024Z" fill="#37352D"/></svg><svg fill="none" viewBox="0 0 24 25" id="pdf" xmlns="http://www.w3.org/2000/svg"><path d="M9 18.547c-.1 0-.19-.02-.29-.06a.74.74 0 0 1-.46-.69v-6c0-.41.34-.75.75-.75s.75.34.75.75v4.19l.72-.72c.29-.29.77-.29 1.06 0 .29.29.29.77 0 1.06l-2 2c-.14.14-.34.22-.53.22Z" fill="#fff"/><path d="M9 18.547c-.19 0-.38-.07-.53-.22l-2-2a.754.754 0 0 1 0-1.06c.29-.29.77-.29 1.06 0l2 2c.29.29.29.77 0 1.06-.15.15-.34.22-.53.22Z" fill="#fff"/><path d="M15 23.547H9c-5.43 0-7.75-2.32-7.75-7.75v-6c0-5.43 2.32-7.75 7.75-7.75h5c.41 0 .75.34.75.75s-.34.75-.75.75H9c-4.61 0-6.25 1.64-6.25 6.25v6c0 4.61 1.64 6.25 6.25 6.25h6c4.61 0 6.25-1.64 6.25-6.25v-5c0-.41.34-.75.75-.75s.75.34.75.75v5c0 5.43-2.32 7.75-7.75 7.75Z" fill="#fff"/><path d="M22 11.547h-4c-3.42 0-4.75-1.33-4.75-4.75v-4c0-.3.18-.58.46-.69.28-.12.6-.05.82.16l8 8a.751.751 0 0 1-.53 1.28Zm-7.25-6.94v2.19c0 2.58.67 3.25 3.25 3.25h2.19l-5.44-5.44Z" fill="#fff"/></svg><svg fill="none" viewBox="0 0 14 22" id="play" xmlns="http://www.w3.org/2000/svg"><path d="M14 11.302.5 21.695V.91L14 11.302Z" fill="#fff"/></svg><svg fill="none" viewBox="0 0 24 24" id="plus" xmlns="http://www.w3.org/2000/svg"><path d="M12 3v18M3 12h18" stroke="#37352D" stroke-width="1.2" stroke-linejoin="round"/></svg><svg fill="none" viewBox="0 0 24 24" id="promo" xmlns="http://www.w3.org/2000/svg"><path opacity=".5" d="m9 15 6-6" stroke="#E0AB31" stroke-width="1.2" stroke-linejoin="round"/><path opacity=".5" d="M14.495 14.5h.009M9.495 9.5h.008" stroke="#E0AB31" stroke-width="1.2" stroke-linecap="round" stroke-linejoin="round"/><path d="m12 1.859 2.77 2.837.18.183.256-.003 3.965-.047-.047 3.965-.003.257.184.18L22.14 12l-2.836 2.77-.184.18.003.256.047 3.965-3.965-.047-.256-.003-.18.184L12 22.14l-2.77-2.836-.18-.184-.256.003-3.965.047.047-3.965.003-.256-.183-.18L1.859 12l2.837-2.77.183-.18-.003-.256-.047-3.965 3.965.047.257.003.18-.183L12 1.859Z" stroke="#fff" stroke-width="1.2"/></svg><svg fill="none" viewBox="0 0 71 70" id="quote" xmlns="http://www.w3.org/2000/svg"><rect x=".566" width="70" height="70" rx="35" fill="#4E4B42"/><path d="M31.165 34v.235a3.93 3.93 0 0 1 2.249.941c.642.51.964 1.157.964 1.942 0 .745-.3 1.411-.9 2-.6.588-1.414.882-2.442.882-.985 0-1.82-.412-2.506-1.235-.642-.824-.964-1.843-.964-3.06 0-1.215.579-2.47 1.735-3.764 1.2-1.294 2.4-1.941 3.599-1.941.385 0 .578.059.578.177 0 .117-.086.176-.257.176s-.493.294-.964.882c-.728.863-1.092 1.785-1.092 2.765Zm9.189 0v.235a3.93 3.93 0 0 1 2.249.941c.642.51.963 1.157.963 1.942 0 .745-.3 1.411-.9 2-.556.588-1.349.882-2.377.882-.985 0-1.82-.412-2.506-1.235-.685-.824-1.028-1.843-1.028-3.06 0-1.215.6-2.47 1.8-3.764C39.753 30.647 40.952 30 42.152 30c.343 0 .514.059.514.177 0 .117-.043.176-.129.176-.257 0-.62.294-1.092.882-.728.902-1.092 1.824-1.092 2.765Z" fill="#fff"/></svg><svg fill="none" viewBox="0 0 24 24" id="search" xmlns="http://www.w3.org/2000/svg"><path d="M11 20a9 9 0 1 0 0-18 9 9 0 0 0 0 18Z" stroke="#E0AB31" stroke-width="1.4" stroke-linecap="round" stroke-linejoin="round"/><path d="m21.999 22-3.198-3.198" stroke="#E0AB31" stroke-width="1.4" stroke-linejoin="round"/></svg><svg fill="none" viewBox="0 0 48 48" id="star" xmlns="http://www.w3.org/2000/svg"><path d="M11.913 20.815A23.839 23.839 0 0 1 0 24c4.187 0 8.302 1.1 11.913 3.185l.03.018c.018.012.036.018.054.03l.144.085a24.206 24.206 0 0 1 8.5 8.522l.204.356v.007a24.137 24.137 0 0 1 3.065 9.875c.054.635.084 1.281.09 1.922.006-.64.036-1.287.09-1.922a24.137 24.137 0 0 1 3.065-9.876v-.006l.204-.356a24.206 24.206 0 0 1 8.5-8.522l.144-.085c.018-.012.036-.018.054-.03l.03-.018A23.839 23.839 0 0 1 48 24c-4.187 0-8.302-1.1-11.913-3.185l-.03-.018c-.018-.012-.036-.018-.054-.03l-.144-.085a24.206 24.206 0 0 1-8.5-8.522l-.204-.356v-.007a24.136 24.136 0 0 1-3.065-9.875A25.594 25.594 0 0 1 24 0c-.006.64-.036 1.287-.09 1.922a24.136 24.136 0 0 1-3.065 9.875v.007l-.204.356a24.206 24.206 0 0 1-8.5 8.522l-.144.085c-.018.012-.036.018-.054.03l-.03.018Z" fill="#4E4B42"/></svg><svg fill="none" viewBox="0 0 48 48" id="star2" xmlns="http://www.w3.org/2000/svg"><path d="M11.913 20.815A23.839 23.839 0 0 1 0 24c4.187 0 8.302 1.1 11.913 3.185l.03.018c.018.012.036.018.054.03l.144.085a24.206 24.206 0 0 1 8.5 8.522l.204.356v.007a24.137 24.137 0 0 1 3.065 9.875c.054.635.084 1.281.09 1.922.006-.64.036-1.287.09-1.922a24.137 24.137 0 0 1 3.065-9.876v-.006l.204-.356a24.206 24.206 0 0 1 8.5-8.522l.144-.085c.018-.012.036-.018.054-.03l.03-.018A23.839 23.839 0 0 1 48 24c-4.187 0-8.302-1.1-11.913-3.185l-.03-.018c-.018-.012-.036-.018-.054-.03l-.144-.085a24.206 24.206 0 0 1-8.5-8.522l-.204-.356v-.007a24.136 24.136 0 0 1-3.065-9.875A25.594 25.594 0 0 1 24 0c-.006.64-.036 1.287-.09 1.922a24.136 24.136 0 0 1-3.065 9.875v.007l-.204.356a24.206 24.206 0 0 1-8.5 8.522l-.144.085c-.018.012-.036.018-.054.03l-.03.018Z" fill="#615D53"/></svg><svg fill="none" viewBox="0 0 22 22" id="user" xmlns="http://www.w3.org/2000/svg"><path d="M11.003 11.222A4.95 4.95 0 0 1 6.061 6.28a4.95 4.95 0 0 1 4.942-4.942 4.95 4.95 0 0 1 4.942 4.942 4.95 4.95 0 0 1-4.942 4.942Z" stroke="#8E8C87" stroke-width="1.2"/><path d="M11.003 11.222A4.95 4.95 0 0 1 6.061 6.28a4.95 4.95 0 0 1 4.942-4.942 4.95 4.95 0 0 1 4.942 4.942 4.95 4.95 0 0 1-4.942 4.942Z" stroke="#000" stroke-opacity=".2" stroke-width="1.2"/><g opacity=".5" stroke-width="1.2"><path d="M1.07 21.51c0-4.541 4.456-8.242 9.933-8.242 5.477 0 9.933 3.7 9.933 8.242" stroke="#8E8C87"/><path d="M1.07 21.51c0-4.541 4.456-8.242 9.933-8.242 5.477 0 9.933 3.7 9.933 8.242" stroke="#000" stroke-opacity=".2"/></g></svg></svg>