<svg width="120" height="102" viewBox="0 0 120 102" fill="none" xmlns="http://www.w3.org/2000/svg">
<path d="M98.8913 20.2382L98.9044 20.2306L98.9073 20.2288C98.9241 20.2195 98.9443 20.2079 98.9671 20.194L99.0394 20.1512L99.0394 20.1512L99.0436 20.1487C101.377 18.7574 103.338 16.7787 104.72 14.4189L104.724 14.4105L104.729 14.402L104.853 14.1845L105.049 13.84V13.8235C105.194 13.5501 105.331 13.2736 105.46 12.9939C105.589 13.2736 105.726 13.5501 105.872 13.8235V13.84L106.067 14.1845L106.191 14.402L106.196 14.4105L106.201 14.4189C107.582 16.7787 109.543 18.7574 111.877 20.1487L111.881 20.1512L111.953 20.1941C111.976 20.208 111.996 20.2195 112.013 20.2288L112.016 20.2306L112.029 20.2382C112.431 20.4722 112.843 20.6878 113.263 20.8847C112.843 21.0815 112.431 21.2971 112.029 21.5312L112.016 21.5388L112.013 21.5405C111.996 21.5498 111.976 21.5614 111.953 21.5753L111.881 21.6181L111.877 21.6206C109.543 23.0119 107.582 24.9906 106.201 27.3504L106.196 27.3588L106.191 27.3673L106.067 27.5848L105.872 27.9294V27.9459C105.726 28.2192 105.589 28.4958 105.46 28.7754C105.331 28.4958 105.194 28.2192 105.049 27.9459V27.9294L104.853 27.5848L104.729 27.3673L104.724 27.3588L104.72 27.3504C103.339 24.9906 101.377 23.0119 99.0436 21.6206L99.0394 21.6181L98.967 21.5753C98.9443 21.5614 98.9241 21.5498 98.9073 21.5405L98.9044 21.5388L98.8913 21.5312C98.4888 21.2971 98.077 21.0815 97.6572 20.8847C98.077 20.6878 98.4888 20.4722 98.8913 20.2382ZM112.07 20.2588C112.072 20.26 112.068 20.2578 112.062 20.2552L112.07 20.2588Z" stroke="white" stroke-width="3"/>
<path d="M25.8927 45.5284L25.9058 45.5208L25.9187 45.5129L25.9655 45.4845C25.9781 45.4779 25.9937 45.4697 26.01 45.4607C26.0355 45.4466 26.0671 45.4286 26.1026 45.4064L26.3837 45.24L26.3879 45.2375C33.9732 40.7149 40.3563 34.2773 44.8506 26.598L44.8555 26.5896L44.8603 26.5811L45.2907 25.8234L45.4864 25.4788V25.4602C47.8054 21.2713 49.5301 16.8442 50.6445 12.233C51.7588 16.8442 53.4836 21.2713 55.8026 25.4602V25.4788L55.9983 25.8234L56.4286 26.5811L56.4334 26.5896L56.4383 26.598C60.9326 34.2773 67.3157 40.7149 74.9011 45.2375L74.9053 45.24L75.1864 45.4064C75.2219 45.4286 75.2535 45.4467 75.279 45.4607C75.2953 45.4697 75.3109 45.4779 75.3235 45.4845L75.3702 45.5129L75.3831 45.5208L75.3962 45.5284C79.6396 47.9958 84.2027 49.8329 88.9372 51C84.2027 52.1671 79.6396 54.0042 75.3963 56.4716L75.3832 56.4792L75.3703 56.487L75.3234 56.5156C75.3109 56.5221 75.2953 56.5303 75.279 56.5393C75.2535 56.5533 75.222 56.5714 75.1865 56.5936L74.9053 56.76L74.9011 56.7625C67.3157 61.2851 60.9326 67.7227 56.4383 75.402L56.4334 75.4104L56.4286 75.4189L55.9983 76.1766L55.8026 76.5212V76.5398C53.4836 80.7287 51.7588 85.1558 50.6445 89.7669C49.5301 85.1558 47.8053 80.7287 45.4864 76.5399V76.5212L45.2907 76.1766L44.8603 75.4189L44.8555 75.4104L44.8506 75.402C40.3563 67.7227 33.9732 61.2851 26.3879 56.7625L26.3837 56.76L26.1025 56.5936C26.067 56.5714 26.0355 56.5533 26.0099 56.5393C25.9936 56.5303 25.978 56.5221 25.9655 56.5155L25.9187 56.487L25.9058 56.4792L25.8927 56.4716C21.6493 54.0042 17.0862 52.1671 12.3517 51C17.0862 49.8329 21.6493 47.9958 25.8927 45.5284Z" stroke="white" stroke-width="3"/>
</svg>
